# xmcd
#
# Track frame offsets:
#	224
#	22003
#	56059
#	72710
#	89939
#	108410
#	123799
#	147398
#	170346
#	196215
#
# Disc length: 3098 seconds
# Revision: 0
# Processed by: cddbd v1.5.2PL0 Copyright (c) Steve Scherf et al.
# Submitted via: dBpowerAMP V12.0
#
DISCID=980c180a
DTITLE=Various Artist - Mastercuts Disco CD 2
DYEAR=2007
DGENRE=Disco
TTITLE0=Earth, Wind and Fire - Boogie Wonderland
TTITLE1=Phyllis Hyman - You Know How to Love Me
TTITLE2=The Emotions - Best of My Love
TTITLE3=Cheryl Lynn - Got to Be Real
TTITLE4=Tammi Lee - Do It How You Wanna
TTITLE5=Vicki Sue Robinson - Turn the Beat Around
TTITLE6=Emotions - Blind Alley
TTITLE7=The Troopers - One Night
TTITLE8=Silver Connection - Fly Robin Fly
TTITLE9=Solar MC - Future Funk (House Mix)
EXTD=
EXTT0=
EXTT1=
EXTT2=
EXTT3=
EXTT4=
EXTT5=
EXTT6=
EXTT7=
EXTT8=
EXTT9=
PLAYORDER=
